<?xml version="1.0" standalone="no"?>
<!DOCTYPE svg PUBLIC "-//W3C//DTD SVG 20010904//EN"
 "http://www.w3.org/TR/2001/REC-SVG-20010904/DTD/svg10.dtd">
<svg version="1.0" xmlns="http://www.w3.org/2000/svg"
 width="512.000000pt" height="512.000000pt" viewBox="0 0 512.000000 512.000000"
 preserveAspectRatio="xMidYMid meet">
<metadata>
Created by potrace 1.14, written by Peter Selinger 2001-2017
</metadata>
<g transform="translate(0.000000,512.000000) scale(0.100000,-0.100000)"
fill="#000000" stroke="none">
<path d="M2339 4706 c-2 -2 -44 -7 -94 -10 -113 -8 -153 -13 -238 -26 -37 -6
-86 -13 -108 -15 -23 -3 -45 -7 -48 -9 -4 -3 -27 -7 -51 -11 -25 -3 -99 -20
-165 -36 -774 -195 -1335 -596 -1550 -1108 -15 -36 -29 -72 -31 -80 -2 -9 -13
-52 -25 -96 -14 -57 -21 -119 -24 -216 -3 -149 5 -186 49 -214 24 -16 206 -17
2500 -17 2060 0 2479 2 2501 13 51 25 62 64 60 201 -3 142 -7 171 -41 292 -43
152 -149 349 -253 471 -61 71 -217 219 -289 273 -234 177 -524 323 -837 421
-126 39 -293 83 -365 95 -19 3 -46 8 -60 11 -32 7 -62 12 -125 21 -27 5 -52 9
-55 9 -3 1 -41 5 -85 9 -44 5 -93 10 -110 13 -37 6 -550 14 -556 9z m287 -435
c64 -46 230 -224 238 -254 9 -39 -16 -92 -55 -112 -56 -30 -89 -11 -227 128
-109 110 -122 128 -122 158 1 96 88 138 166 80z m-619 -198 c34 -22 47 -74 30
-115 -8 -18 -68 -86 -134 -150 -114 -112 -122 -118 -161 -118 -80 0 -126 84
-83 154 32 51 235 244 262 248 31 5 58 -2 86 -19z m2090 -245 c106 -97 192
-194 199 -224 21 -82 -87 -154 -154 -103 -52 40 -224 219 -237 246 -21 43 -12
82 25 116 51 46 86 38 167 -35z m-3141 -148 c8 0 70 -55 138 -123 134 -135
149 -162 120 -222 -28 -60 -101 -73 -156 -28 -18 16 -77 72 -130 126 -107 108
-125 146 -96 196 18 29 76 64 96 56 8 -3 20 -5 28 -5z m2484 -19 c29 -21 45
-69 36 -105 -6 -24 -196 -224 -246 -259 -49 -34 -119 -15 -144 38 -29 60 -15
85 121 220 142 142 167 153 233 106z"/>
<path d="M288 2658 c-77 -16 -105 -112 -49 -169 20 -20 40 -29 63 -30 18 0
393 -2 833 -3 l800 -2 600 -301 c330 -165 611 -303 624 -306 13 -3 38 0 55 8
17 7 163 146 324 308 l294 294 504 0 c456 1 506 2 530 18 75 49 54 165 -34
181 -46 9 -4501 11 -4544 2z"/>
<path d="M425 2249 c-147 -9 -242 -52 -326 -147 -71 -81 -100 -167 -95 -281 8
-172 130 -322 300 -371 57 -16 211 -17 2266 -16 2132 1 2207 2 2260 20 171 59
276 197 286 373 10 193 -120 359 -324 413 -28 7 -165 11 -388 12 l-344 0 -367
-366 c-332 -333 -370 -367 -414 -380 -27 -8 -67 -13 -90 -10 -27 3 -292 131
-792 380 l-750 376 -561 1 c-309 1 -606 -1 -661 -4z"/>
<path d="M223 1216 c-214 -68 -284 -310 -156 -542 61 -111 198 -216 326 -250
76 -20 4256 -21 4332 0 188 50 351 218 383 396 11 61 10 148 -3 195 -19 70
-93 152 -170 187 l-50 23 -2310 2 c-1877 1 -2318 -1 -2352 -11z"/>
</g>
</svg>
